<?xml version="1.0" standalone="no"?>
<!DOCTYPE svg PUBLIC "-//W3C//DTD SVG 20010904//EN"
 "http://www.w3.org/TR/2001/REC-SVG-20010904/DTD/svg10.dtd">
<svg version="1.0" xmlns="http://www.w3.org/2000/svg"
 width="278.000000pt" height="278.000000pt" viewBox="0 0 278.000000 278.000000"
 preserveAspectRatio="xMidYMid meet">

<g transform="translate(0.000000,278.000000) scale(0.100000,-0.100000)"
fill="#000000" stroke="none">
<path d="M790 2488 c-139 -49 -227 -124 -286 -243 -19 -38 -39 -94 -44 -124
-6 -30 -10 -241 -10 -485 0 -428 0 -432 23 -476 29 -57 70 -88 92 -70 21 17
19 24 -16 64 l-30 35 0 464 c0 449 1 465 21 521 44 116 145 212 261 247 68 21
92 22 468 23 292 1 413 -2 460 -12 258 -53 464 -221 568 -462 46 -107 65 -206
66 -340 2 -183 -47 -348 -143 -489 -54 -81 -58 -112 -31 -277 12 -72 21 -137
21 -146 0 -12 -37 0 -160 55 l-161 70 -62 -21 c-123 -44 -202 -52 -490 -52
-322 0 -285 13 -459 -158 l-118 -115 0 792 c0 871 -3 834 61 866 25 14 89 16
422 18 430 2 455 0 577 -61 78 -38 179 -141 219 -224 127 -258 47 -596 -175
-743 -31 -21 -89 -50 -128 -64 -68 -24 -83 -26 -341 -31 l-270 -5 -60 -30
c-81 -41 -158 -121 -200 -210 -36 -74 -43 -109 -25 -120 23 -14 48 8 69 62 30
78 81 144 147 189 l56 39 277 6 c304 6 328 10 452 76 69 35 176 134 226 208
116 171 129 452 31 650 -82 165 -221 274 -402 311 -55 12 -151 14 -471 12
l-401 -3 -41 -27 c-24 -16 -49 -44 -62 -70 -21 -44 -21 -49 -21 -885 0 -721 2
-842 14 -853 9 -7 21 -8 29 -3 8 4 85 77 172 160 l158 153 282 0 c288 0 351 6
466 42 l65 21 169 -72 c92 -39 178 -71 191 -71 37 0 38 31 9 206 -35 214 -36
209 20 285 59 79 98 162 127 271 29 108 32 345 5 450 -81 322 -289 549 -589
640 -70 21 -91 22 -518 25 -440 3 -446 3 -510 -19z"/>
<path d="M914 1946 c-3 -8 -4 -25 -2 -38 2 -18 10 -24 35 -26 28 -3 33 1 39
22 3 14 4 33 0 41 -7 19 -65 20 -72 1z"/>
<path d="M1125 1930 c-4 -12 -3 -26 2 -31 5 -5 123 -10 263 -12 178 -3 266 -8
292 -17 91 -32 157 -126 165 -235 10 -120 -42 -219 -141 -270 l-60 -30 -257
-3 c-268 -4 -288 -7 -273 -46 6 -16 31 -17 283 -14 l276 3 65 36 c120 66 177
176 168 326 -8 129 -67 226 -172 281 l-51 27 -277 3 c-276 3 -276 3 -283 -18z"/>
<path d="M925 1650 c-37 -41 24 -97 63 -58 17 17 15 44 -4 62 -21 21 -37 20
-59 -4z"/>
<path d="M1146 1654 c-19 -18 -20 -28 -6 -55 19 -35 80 -18 80 22 0 21 -26 49
-45 49 -7 0 -21 -7 -29 -16z"/>
</g>
</svg>
